<?xml version="1.0" encoding="UTF-8"?><svg id="Layer_1" xmlns="http://www.w3.org/2000/svg" viewBox="0 0 500 500"><defs><style>.cls-1{fill:#fff;}.cls-2{fill:#5f7285;}.cls-3{fill:#24292d;}</style></defs><polygon class="cls-3" points="30 470 30 135.61 135.61 30 470 30 470 364.39 364.39 470 30 470"/><path class="cls-2" d="m465,35v327.32l-102.68,102.68H35V137.68l102.68-102.68h327.32m10-10H133.53L25,133.53v341.47h341.47l108.53-108.53V25h0Z"/><path class="cls-1" d="m343.38,159.78c-17.17-7.88-35.59-13.69-54.85-17.01-.35-.06-.7.09-.88.41-2.37,4.22-4.99,9.71-6.83,14.03-20.71-3.1-41.32-3.1-61.6,0-1.84-4.42-4.55-9.81-6.94-14.03-.18-.31-.53-.47-.88-.41-19.25,3.32-37.66,9.12-54.85,17.01-.15.06-.28.17-.36.31-34.94,52.19-44.5,103.1-39.81,153.38.02.24.16.48.35.63,23.05,16.93,45.37,27.2,67.29,34.01.35.11.72-.02.95-.31,5.18-7.08,9.81-14.54,13.77-22.39.23-.46.01-1.01-.47-1.19-7.33-2.78-14.31-6.17-21.02-10.02-.53-.31-.57-1.07-.08-1.43,1.41-1.06,2.83-2.16,4.17-3.27.24-.2.58-.24.87-.12,44.1,20.14,91.85,20.14,135.42,0,.29-.14.63-.09.88.11,1.35,1.11,2.76,2.22,4.19,3.28.49.36.46,1.12-.08,1.43-6.71,3.93-13.69,7.24-21.03,10.01-.48.18-.69.74-.46,1.2,4.05,7.84,8.67,15.3,13.76,22.38.21.3.6.43.95.32,22.01-6.81,44.34-17.09,67.39-34.01.2-.15.33-.37.35-.62,5.62-58.12-9.41-108.62-39.84-153.37-.07-.15-.2-.26-.35-.32m-138.07,123.07c-13.28,0-24.21-12.19-24.21-27.16s10.73-27.16,24.21-27.16,24.43,12.3,24.22,27.16c0,14.97-10.73,27.16-24.22,27.16m89.54,0c-13.28,0-24.21-12.19-24.21-27.16s10.72-27.16,24.21-27.16,24.43,12.3,24.22,27.16c0,14.97-10.62,27.16-24.22,27.16"/></svg>