<?xml version="1.0" encoding="UTF-8"?><svg id="Layer_1" xmlns="http://www.w3.org/2000/svg" viewBox="0 0 500 500"><defs><style>.cls-1{fill:#fff;}.cls-2{fill:#dbe6ec;}.cls-3{fill:#9bc9e4;}</style></defs><polygon class="cls-3" points="30 470 30 135.61 135.61 30 470 30 470 364.39 364.39 470 30 470"/><path class="cls-2" d="m465,35v327.32l-102.68,102.68H35V137.68l102.68-102.68h327.32m10-10H133.53L25,133.53v341.47h341.47l108.53-108.53V25h0Z"/><path class="cls-1" d="m233.64,328.79c5.3,0,9.59,4.31,9.59,9.61,0,5.3-4.31,9.59-9.61,9.59s-9.59-4.31-9.59-9.61c0-5.3,4.31-9.59,9.61-9.59h0m150.53-59.36c-5.3,0-9.6-4.3-9.59-9.61,0-5.3,4.3-9.6,9.61-9.59,5.3,0,9.6,4.3,9.59,9.61,0,5.3-4.3,9.6-9.61,9.59m0-39.27c-16.39.02-29.67,13.3-29.68,29.68,0,3.18.53,6.35,1.57,9.44l-98.05,52.2c-5.52-8.01-14.63-12.8-24.36-12.79-11.32,0-21.63,6.49-26.63,16.6l-88.09-46.45c-9.31-4.89-16.28-20.21-15.54-34.16.38-7.28,2.89-12.93,6.73-15.12,2.43-1.37,5.35-1.26,8.47.37l.57.31c23.35,12.29,99.73,52.53,102.96,54.02,4.96,2.31,7.71,3.24,16.18-.78l157.9-82.12c2.32-.87,5.02-3.1,5.02-6.47,0-4.67-4.83-6.51-4.85-6.51-8.98-4.3-22.79-10.76-36.25-17.07-28.78-13.48-61.4-28.74-75.73-36.25-12.37-6.47-22.33-1.01-24.1.08l-3.44,1.71c-64.48,31.88-150.77,74.62-155.69,77.61-8.78,5.35-14.23,16.02-14.94,29.25-1.09,20.99,9.6,42.88,24.91,50.89l93.15,48.04c2.12,14.59,14.62,25.41,29.36,25.42,16.2-.03,29.4-13.02,29.67-29.22l102.6-55.61c5.19,4.07,11.65,6.29,18.26,6.29,16.39-.02,29.67-13.3,29.68-29.68-.02-16.39-13.3-29.67-29.68-29.68"/></svg>