<?xml version="1.0" encoding="UTF-8"?><svg id="Layer_1" xmlns="http://www.w3.org/2000/svg" viewBox="0 0 500 500"><defs><style>.cls-1{fill:#fff;}.cls-2{fill:#5f7285;}.cls-3{fill:#24292d;}</style></defs><polygon class="cls-3" points="30 470 30 135.61 135.61 30 470 30 470 364.39 364.39 470 30 470"/><path class="cls-2" d="m465,35v327.32l-102.68,102.68H35V137.68l102.68-102.68h327.32m10-10H133.53L25,133.53v341.47h341.47l108.53-108.53V25h0Z"/><path class="cls-1" d="m384.46,132.65c-1.02,0-2.06.18-3.11.58L112.48,235.39c-7.6,2.89-7.39,13.7.3,16.3l62.34,21.06,37.59,75.24s.02.04.03.06l.1.2h.03c.68,1.38,2.1,2.28,3.61,2.28.89,0,1.8-.3,2.58-.97l35.22-29.86-39.33-29.84,3.08,39.2-28.27-58.53,150.24-90.24-125.05,109.58,97.35,73.88c3.26,2.47,6.99,3.61,10.66,3.61,7.72,0,15.15-5.07,17.24-13.43l52.62-210.5c1.43-5.7-3.03-10.78-8.37-10.78"/></svg>