<?xml version="1.0" encoding="UTF-8"?><svg id="Layer_1" xmlns="http://www.w3.org/2000/svg" viewBox="0 0 500 500"><defs><style>.cls-1{fill:#fff;}.cls-2{fill:#dbe6ec;}.cls-3{fill:#9bc9e4;}</style></defs><polygon class="cls-3" points="30 470 30 135.61 135.61 30 470 30 470 364.39 364.39 470 30 470"/><path class="cls-2" d="m465,35v327.32l-102.68,102.68H35V137.68l102.68-102.68h327.32m10-10H133.53L25,133.53v341.47h341.47l108.53-108.53V25h0Z"/><g id="layer1"><path id="path1009" class="cls-1" d="m124.48,131.94l97.4,130.23-98.01,105.88h22.06l85.81-92.7,69.33,92.7h75.07l-102.88-137.55,91.23-98.56h-22.06l-79.03,85.38-63.85-85.38h-75.07Zm32.44,16.25h34.49l152.29,203.62h-34.49l-152.29-203.62Z"/></g></svg>